<svg width="38" height="45" viewBox="0 0 38 45" fill="none" xmlns="http://www.w3.org/2000/svg">
<path d="M12.6523 29.3789C12.418 28.6523 12.1836 28.0078 11.9492 27.4453C11.7383 26.8828 11.5508 26.4023 11.3867 26.0039C10.4727 26.3086 9.47656 26.5195 8.39844 26.6367C8.39844 28.1367 8.43359 29.4141 8.50391 30.4688C8.52734 31.125 8.55078 31.6875 8.57422 32.1562C8.62109 32.6016 8.65625 32.9883 8.67969 33.3164C8.72656 33.6445 8.77344 33.9375 8.82031 34.1953C8.86719 34.4766 8.9375 34.7461 9.03125 35.0039C8.5625 35.3555 8.10547 35.6133 7.66016 35.7773C7.23828 35.9414 6.86328 36.0586 6.53516 36.1289C6.13672 36.2227 5.78516 36.2461 5.48047 36.1992C5.36328 35.8711 5.25781 35.5195 5.16406 35.1445C5.07031 34.793 5 34.3008 4.95312 33.668C4.92969 33.0586 4.91797 32.2734 4.91797 31.3125C4.91797 30.3516 4.95312 29.1211 5.02344 27.6211C5.04688 27.457 5.05859 27.293 5.05859 27.1289C5.05859 26.9648 5.07031 26.8008 5.09375 26.6367C4.88281 26.6133 4.66016 26.5898 4.42578 26.5664C4.21484 26.543 4.00391 26.5195 3.79297 26.4961C3.65234 26.1211 3.55859 25.793 3.51172 25.5117C3.46484 25.207 3.44141 24.9609 3.44141 24.7734C3.44141 24.5391 3.46484 24.3516 3.51172 24.2109C3.88672 24.2812 4.26172 24.3164 4.63672 24.3164H5.16406C5.21094 23.332 5.25781 22.3359 5.30469 21.3281C5.35156 20.2969 5.38672 19.3008 5.41016 18.3398C5.45703 17.3555 5.49219 16.4297 5.51562 15.5625C5.53906 14.6719 5.5625 13.8633 5.58594 13.1367C4.88281 13.6055 4.27344 14.2148 3.75781 14.9648C3.24219 15.7148 2.89062 16.582 2.70312 17.5664C2.39844 17.5195 2.14062 17.3789 1.92969 17.1445C1.71875 16.8867 1.54297 16.6289 1.40234 16.3711C1.23828 16.0664 1.09766 15.7266 0.980469 15.3516C0.863281 14.9063 0.863281 14.4609 0.980469 14.0156C1.09766 13.5469 1.27344 13.1133 1.50781 12.7148C1.74219 12.293 2.01172 11.9297 2.31641 11.625C2.62109 11.2969 2.91406 11.0391 3.19531 10.8516C3.6875 10.5469 4.19141 10.2773 4.70703 10.043C5.24609 9.78516 5.84375 9.57422 6.5 9.41016C6.75781 9.15234 7.03906 8.91797 7.34375 8.70703C7.67188 8.49609 7.97656 8.36719 8.25781 8.32031C8.65625 8.22656 8.87891 8.47266 8.92578 9.05859C9.13672 9.03516 9.35938 9.02344 9.59375 9.02344C9.82812 9 10.0742 8.98828 10.332 8.98828C11.2227 8.98828 12.1484 9.12891 13.1094 9.41016C14.0703 9.69141 14.9492 10.1484 15.7461 10.7812C16.5664 11.3906 17.2344 12.1992 17.75 13.207C18.2656 14.1914 18.5234 15.3984 18.5234 16.8281C18.5234 18.4453 18.1367 19.9336 17.3633 21.293C16.6133 22.6523 15.5352 23.7773 14.1289 24.668C14.293 25.0898 14.5039 25.6172 14.7617 26.25C15.0195 26.8828 15.2773 27.5977 15.5352 28.3945C15.9102 29.3789 16.3086 30.3047 16.7305 31.1719C17.1758 32.0156 17.6328 32.7539 18.1016 33.3867C18.5703 34.0195 19.0625 34.5234 19.5781 34.8984C20.0938 35.2969 20.6094 35.5312 21.125 35.6016C20.8203 36.0703 20.4688 36.3984 20.0703 36.5859C19.6719 36.7734 19.2734 36.8906 18.875 36.9375C18.4297 37.0078 17.9609 37.0078 17.4688 36.9375C16.7891 36.7969 16.2031 36.4688 15.7109 35.9531C15.2188 35.4375 14.7852 34.8164 14.4102 34.0898C14.0586 33.3633 13.7305 32.5898 13.4258 31.7695C13.1445 30.9258 12.8867 30.1289 12.6523 29.3789ZM8.57422 14.4023C8.57422 14.918 8.5625 15.5391 8.53906 16.2656C8.51562 16.9922 8.49219 17.7773 8.46875 18.6211C8.46875 19.4648 8.45703 20.3555 8.43359 21.293C8.41016 22.207 8.39844 23.1211 8.39844 24.0352C9.03125 23.9414 9.72266 23.7891 10.4727 23.5781C11.2461 23.3672 11.9609 23.0156 12.6172 22.5234C13.2734 22.0312 13.8242 21.375 14.2695 20.5547C14.7148 19.7344 14.9375 18.6797 14.9375 17.3906C14.9375 16.4062 14.7617 15.5742 14.4102 14.8945C14.082 14.1914 13.6484 13.6289 13.1094 13.207C12.5703 12.7617 11.9727 12.4453 11.3164 12.2578C10.6836 12.0469 10.0508 11.9414 9.41797 11.9414C9.30078 11.9414 9.18359 11.9414 9.06641 11.9414C8.94922 11.9414 8.82031 11.9531 8.67969 11.9766C8.60938 12.7266 8.57422 13.5352 8.57422 14.4023Z" fill="#0065FC"/>
</svg>
